<?xml version="1.0" standalone="no"?>
<!DOCTYPE svg PUBLIC "-//W3C//DTD SVG 20010904//EN"
 "http://www.w3.org/TR/2001/REC-SVG-20010904/DTD/svg10.dtd">
<svg version="1.0" xmlns="http://www.w3.org/2000/svg"
 width="550.000000pt" height="550.000000pt" viewBox="0 0 550.000000 550.000000"
 preserveAspectRatio="xMidYMid meet">

<g transform="translate(0.000000,550.000000) scale(0.100000,-0.100000)"
fill="#876445" stroke="none">
<path d="M2690 5336 c-231 -183 -482 -548 -587 -853 -15 -46 -31 -83 -34 -83
-3 0 -38 36 -77 80 -176 193 -448 383 -670 466 -84 32 -108 31 -126 -5 -48
-92 -114 -374 -137 -580 -11 -109 -7 -419 7 -513 l6 -38 -43 16 c-67 24 -274
71 -374 85 -87 12 -488 19 -498 9 -9 -9 12 -157 39 -280 14 -63 46 -171 71
-240 184 -515 527 -905 998 -1135 296 -145 553 -213 897 -237 180 -13 339 -4
508 29 79 15 92 15 166 0 289 -58 666 -40 994 48 586 158 1055 542 1315 1080
73 151 113 264 154 436 31 127 56 287 47 296 -2 3 -60 7 -129 10 -216 10 -528
-31 -708 -92 -40 -14 -76 -25 -80 -25 -4 0 -2 19 4 43 19 72 15 484 -6 617
-23 145 -69 329 -108 431 -35 90 -27 87 -144 44 -215 -80 -482 -265 -661 -460
l-87 -95 -24 72 c-58 176 -209 447 -341 613 -100 125 -285 305 -314 305 -2 0
-28 -20 -58 -44z m142 -329 c277 -331 422 -677 459 -1093 31 -364 -74 -826
-272 -1194 -50 -92 -260 -410 -272 -410 -10 0 -182 263 -242 370 -149 270
-252 587 -286 880 -18 164 -7 445 26 598 65 312 205 594 420 847 44 52 82 94
85 94 3 0 40 -41 82 -92z m-1381 -368 c170 -102 339 -249 481 -419 70 -83 79
-99 74 -125 -3 -16 -10 -95 -16 -175 -23 -328 31 -681 150 -979 81 -204 217
-447 298 -533 32 -34 29 -35 -44 -1 -485 219 -864 635 -1029 1128 -114 341
-125 769 -30 1103 9 28 19 52 24 52 4 0 46 -23 92 -51z m2703 29 c106 -374 99
-777 -20 -1143 -110 -336 -363 -679 -674 -911 -124 -92 -366 -234 -400 -234
-5 0 12 30 38 68 200 280 329 602 394 978 18 107 22 166 21 344 0 118 -5 244
-11 280 l-10 65 56 75 c72 96 245 270 343 343 74 56 235 157 249 157 4 0 11
-10 14 -22z m-3425 -998 c143 -28 318 -77 368 -102 21 -11 32 -33 59 -118 42
-129 152 -354 233 -475 178 -265 441 -505 729 -666 58 -32 111 -60 116 -62 6
-3 9 -6 6 -9 -10 -10 -299 33 -425 63 -170 41 -273 78 -421 149 -486 235 -806
631 -978 1211 l-16 52 92 -7 c50 -3 157 -19 237 -36z m4345 -52 c-99 -364
-315 -701 -605 -943 -210 -176 -497 -313 -790 -379 -114 -25 -428 -70 -436
-62 -3 2 33 23 80 45 323 159 655 468 843 788 75 127 134 256 180 390 l37 111
101 31 c204 62 436 108 558 110 l57 1 -25 -92z"/>
<path d="M692 1858 c-28 -68 -193 -483 -275 -694 -48 -123 -51 -160 -16 -183
12 -7 99 -22 193 -32 565 -64 1039 -182 1391 -349 242 -114 456 -253 627 -408
128 -114 154 -116 257 -18 260 246 583 429 991 563 305 99 627 164 1048 212
204 23 227 32 219 91 -2 20 -68 194 -145 386 -186 462 -200 495 -207 502 -16
17 -481 -93 -715 -170 -305 -99 -660 -264 -875 -407 -131 -87 -290 -216 -373
-305 -29 -31 -55 -56 -57 -56 -2 0 -37 33 -77 73 -270 268 -725 525 -1218 687
-218 72 -648 180 -715 180 -19 0 -28 -12 -53 -72z m373 -219 c468 -128 868
-301 1183 -512 140 -93 216 -157 353 -298 107 -111 118 -119 153 -119 34 0 44
7 104 72 154 167 316 302 502 418 262 163 679 333 1085 440 83 22 159 43 170
46 18 5 31 -21 123 -253 56 -142 102 -261 102 -264 0 -4 -30 -10 -67 -14 -38
-3 -126 -15 -198 -26 -728 -109 -1320 -344 -1723 -684 l-103 -86 -67 59 c-314
276 -797 506 -1314 626 -169 39 -442 87 -603 106 -55 7 -102 13 -104 15 -2 2
40 113 92 247 53 134 99 251 103 261 8 21 8 21 209 -34z"/>
</g>
</svg>